<?xml version="1.0" encoding="utf-8"?>
<!-- Generator: Adobe Illustrator 24.1.2, SVG Export Plug-In . SVG Version: 6.00 Build 0)  -->
<svg version="1.1" id="圖層_1" xmlns="http://www.w3.org/2000/svg" xmlns:xlink="http://www.w3.org/1999/xlink" x="0px" y="0px"
	 viewBox="0 0 110 110" style="enable-background:new 0 0 110 110;" xml:space="preserve">
<style type="text/css">
	.st0{fill:none;stroke:#BA2026;stroke-width:3.5;stroke-miterlimit:10;}
</style>
<g>
	<g>
		<path class="st0" d="M84.7,42.5c0,2.5-3.3,4.6-3.9,6.9c-0.6,2.4,1.1,5.8-0.1,7.9c-1.2,2.1-5.1,2.3-6.8,4c-1.7,1.7-1.9,5.6-4,6.8
			c-2.1,1.2-5.5-0.5-7.9,0.1c-2.3,0.6-4.4,3.9-6.9,3.9c-2.5,0-4.6-3.3-6.9-3.9c-2.4-0.6-5.8,1.1-7.9-0.1c-2.1-1.2-2.3-5.1-4-6.8
			c-1.7-1.7-5.6-1.9-6.8-4c-1.2-2.1,0.5-5.5-0.1-7.9c-0.6-2.3-3.9-4.4-3.9-6.9c0-2.5,3.3-4.6,3.9-6.9c0.6-2.4-1.1-5.8,0.1-7.9
			c1.2-2.1,5.1-2.3,6.8-4c1.7-1.7,1.9-5.6,4-6.8c2.1-1.2,5.5,0.5,7.9-0.1c2.3-0.6,4.4-3.9,6.9-3.9c2.5,0,4.6,3.3,6.9,3.9
			c2.4,0.6,5.8-1.1,7.9,0.1c2.1,1.2,2.3,5.1,4,6.8c1.7,1.7,5.6,1.9,6.8,4c1.2,2.1-0.5,5.5,0.1,7.9C81.5,37.9,84.7,40,84.7,42.5z"/>
		<path class="st0" d="M37.9,64.8l-8.3,25.3c-0.4,1.3,0.9,2.5,2.1,1.9l7.3-3.4c0.8-0.4,1.7,0,2.1,0.8l3.3,7c0.6,1.3,2.5,1.2,2.9-0.2
			L55,72.2"/>
		<path class="st0" d="M72.1,64.8l8.3,25.3c0.4,1.3-0.9,2.5-2.1,1.9L71,88.5c-0.8-0.4-1.7,0-2.1,0.8l-3.3,7
			c-0.6,1.3-2.5,1.2-2.9-0.2L55,72.2"/>
		<path class="st0" d="M53.9,53.4l-5.3,2.9c-1.5,0.8-3.3-0.4-3-2.1l1.1-6.6c0.1-0.7-0.1-1.4-0.6-1.9L41.5,41
			c-1.2-1.2-0.5-3.2,1.2-3.4l6.1-0.9c0.7-0.1,1.4-0.6,1.7-1.3l2.7-5.7c0.7-1.6,2.9-1.6,3.7,0l2.7,5.7c0.3,0.7,1,1.2,1.7,1.3l6.1,0.9
			c1.6,0.3,2.3,2.3,1.2,3.4l-4.6,4.7c-0.5,0.5-0.7,1.2-0.6,1.9l1.1,6.6c0.3,1.7-1.5,2.9-3,2.1l-5.3-2.9C55.4,53,54.6,53,53.9,53.4z"
			/>
	</g>
</g>
</svg>
