<?xml version="1.0" encoding="utf-8"?>
<!-- Generator: Adobe Illustrator 24.1.2, SVG Export Plug-In . SVG Version: 6.00 Build 0)  -->
<svg version="1.1" id="圖層_1" xmlns="http://www.w3.org/2000/svg" xmlns:xlink="http://www.w3.org/1999/xlink" x="0px" y="0px"
	 viewBox="0 0 110 110" style="enable-background:new 0 0 110 110;" xml:space="preserve">
<style type="text/css">
	.st0{fill:#BA2026;}
</style>
<g>
	<g>
		<path class="st0" d="M0.1,49.6c0.9-1.7,1.8-3.4,2.7-5.1c0.4-0.8,0.8-1.6,1.1-2.4c0.4-1.2,1.1-1.8,2.3-1.7c1,0.1,2.1,0.4,3.1,0.8
			c1.3,0.6,2.5,0.6,3.6-0.3c0.6-0.5,1.3-1,2-1.2c2.1-0.7,2.9-2.1,3.2-4.2c0.5-4.1,0.6-3.2,3.8-3.2c2,0,4,0,6,0
			c1.8,0,2.4,0.7,2.6,2.5c0.1,0.6,0.1,1.1,0.2,1.7c0.2,1.4,1,2.3,2.2,3c1.1,0.6,2.2,1.2,3.2,1.9c1.1,0.7,2.1,0.7,3.1,0.1
			c3.5-2,4.4-1,6.3,2c0.7,1.1,1.3,2.2,2,3.3c1,1.7,0.9,3.8-0.7,5c-2.1,1.5-2.9,3.4-2.5,5.9c0,0,0,0.1,0,0.1
			c-0.5,2.5,0.6,4.1,2.8,5.3c1.6,0.9,1.9,1.9,1,3.5c-1.2,2.2-2.4,4.4-3.7,6.6c-0.8,1.3-1.7,1.5-3.1,1c-0.5-0.2-1-0.4-1.5-0.6
			c-1.5-0.6-3-0.7-4.4,0.5c-0.4,0.3-0.8,0.6-1.2,0.7c-2.7,0.9-3.5,3-3.5,5.5c0,1.1-0.5,1.5-1.4,1.7c-3,0.8-6,0.6-9,0.6
			c-1.4,0-1.5-0.6-1.8-1.9C18,78.5,18,76,15.2,75.1c-0.5-0.2-1.1-0.5-1.5-0.9C11.9,72.5,9.9,73,8,73.9c-0.4,0.2-0.8,0.5-1.2,0.5
			c-0.6,0-1.5-0.1-1.8-0.5c-0.9-1.1-1.5-2.4-2.2-3.7c-0.5-0.9-1-1.8-1.5-2.7c-1.1-1.8-1-2.8,0.4-4.4c0.1-0.1,0.1-0.2,0.2-0.2
			c3.5-2,2.5-5.4,2.4-8.3c0-0.9-1.3-1.7-2-2.5c-0.7-0.8-1.4-1.5-2.2-2.3C0.1,49.7,0.1,49.6,0.1,49.6z M43.4,48.5
			c-0.3-0.8-0.6-1.5-0.9-2.3c-0.6-1.4-1.5-1.8-2.9-1.2c-0.6,0.2-1.1,0.6-1.7,0.9c-1,0.5-1.9,0.5-2.7-0.4c-1.5-1.6-3.2-2.8-5.3-3.4
			c-1.4-0.4-2.1-1.3-2.5-2.6c-0.2-0.6-0.2-1.3-0.5-1.8c-0.4-0.6-0.9-1.4-1.5-1.6c-2.4-0.8-3.7,0.2-4.1,2.7c-0.1,0.9-0.5,1.9-1.1,2.4
			c-0.9,0.8-2.1,1.2-3.1,1.9c-1,0.6-2.1,1.2-2.9,2c-1,1-2,1.2-3.2,0.7c-0.5-0.2-1-0.6-1.5-0.7c-0.8-0.2-1.7-0.5-2.3-0.2
			c-2.5,1.2-2.8,4.3-0.5,5.8c1.8,1.2,1.9,2.8,1.8,4.6c-0.1,1.4-0.1,2.9,0,4.3c0.2,1.6,0,2.9-1.4,3.9c-0.5,0.4-1,0.9-1.5,1.3
			C5,65.4,4.8,66,5.2,66.8c0.4,0.9,0.9,1.8,1.4,2.6c0.4,0.6,1,0.7,1.7,0.5c1.1-0.4,2.2-0.7,3.4-1.1c1-0.3,1.8,0,2.7,0.6
			c1.3,1,2.7,2.1,4.2,2.6c1.9,0.7,3,1.8,3,3.8c0,0.3-0.1,0.6,0.1,0.8c0.5,0.6,1,1.6,1.5,1.7c3.1,0.3,4.2,0.7,4.4-3
			c0-0.1,0-0.2,0-0.3c0.1-1.1,0.7-1.9,1.8-2.4c1.5-0.7,3-1.5,4.3-2.4c2-1.3,4-1.8,6.2-0.5c0.8,0.5,1.7,0.5,2.3-0.4
			c0.5-0.7,1-1.5,1.5-2.4c0.4-0.8,0.3-1.6-0.3-2.1c-0.8-0.7-1.6-1.3-2.5-1.8c-0.8-0.5-1-1-0.8-1.8c0.6-2.3,0.8-4.6,0.2-6.9
			c-0.4-1.4-0.1-2.7,1.3-3.5c0.5-0.3,1-0.8,1.4-1.3C43.1,49.3,43.2,48.9,43.4,48.5z"/>
		<path class="st0" d="M39.2,103.3c-0.8-0.1-1.7-0.2-2.5-0.3c-3.5-0.6-6.6-2-9.5-4c-1.4-1-2.7-2.3-4-3.5c-0.4-0.3-0.6-0.8-0.8-1.3
			c-0.5-1.3,0.6-2.8,2-2.4c1,0.3,2,0.9,2.7,1.6c4.4,4.7,9.9,6.6,16.2,6.1c2.1-0.2,4.2-1,6.2-1.7c1.1-0.4,2.2-1,3.3-1.6
			c0.6-0.3,1.1-0.7,1.6-1.2c1.3-1.5,2.6-3,3.9-4.5c0.2-0.3,0.3-0.7,0.4-1.1c-0.4-0.1-0.8-0.3-1.2-0.3c-1,0.1-2,0.4-2.9,0.5
			c-0.7,0.1-1.5,0.1-1.9-0.7c-0.3-0.8,0-2.3,0.7-2.7c0.5-0.3,1.1-0.5,1.6-0.7c2-0.8,4-1.5,6-2.2c1-0.3,2-0.5,3-0.6
			c0.4,0,1,0.5,1.1,0.8c0.7,2.3,1.4,4.5,2.7,6.5c0.6,1,0.9,2.2,1.1,3.3c0.2,0.9-0.3,1.7-1.2,2c-0.9,0.4-2,0.1-2.5-0.7
			c-0.3-0.5-0.4-1.1-0.7-1.6c-0.3-0.6-0.7-1.2-1.3-1.5c-0.2-0.1-1,0.5-1.3,0.9c-1.8,2.5-3.8,4.9-6.4,6.6c-3.4,2.2-7,4-11.2,4.1
			c-0.2,0-0.5,0.1-0.7,0.2C42.2,103.3,40.7,103.3,39.2,103.3z"/>
		<path class="st0" d="M66.6,6.7c0.2,0.1,0.5,0.2,0.7,0.2c4.9,0.4,9,2.6,12.8,5.6c0.2,0.2,0.4,0.4,0.6,0.5c0.9,1,1,2.5,0.3,3.3
			c-0.6,0.6-2.1,0.4-3.1-0.2c-2-1.4-3.8-2.9-6-3.9c-4-1.8-8.2-2.4-12.6-1.3c-4.8,1.2-8.7,3.8-11.7,7.6c-0.7,0.8-1.2,1.7-1.8,2.7
			c-0.2,0.3-0.1,0.9,0.1,1.2c0.2,0.2,0.8,0.3,1.2,0.2c1-0.3,1.8-0.8,2.8-0.9c0.8-0.1,1.7-0.2,2.1,0.9c0.3,1.1,0,2.1-1,2.6
			c-1.1,0.6-2.2,1.1-3.3,1.6c-1.4,0.7-2.8,1.5-4.3,2.1c-0.7,0.3-1.4,0.4-2.1,0.5c-0.8,0.1-1.4-0.3-1.7-1.1c-1.2-2.6-2.6-5.1-3.8-7.6
			c-0.1-0.3-0.2-0.5-0.3-0.8c-0.4-1.3-0.2-2.2,0.6-2.5c1.2-0.5,2.4-0.2,3,0.9c0.3,0.5,0.5,1,0.8,1.4c0.8,1.2,1.5,1.1,2.2-0.1
			c0.4-0.7,0.9-1.5,1.3-2.2c3-4.7,7.2-7.7,12.3-9.6c1.8-0.7,3.7-0.9,5.5-1.2C63,6.7,64.8,6.7,66.6,6.7z"/>
		<path class="st0" d="M109.9,55.3c-0.2,1.1-1,1.3-2,1.3c-1.6,0-3.2,0-4.9,0c-1.2,0-1.6-0.5-1.6-1.5c0-1.4,0.5-2,1.6-2
			c1.5,0,3,0,4.5,0c1.2,0,2,0.3,2.3,1.6C109.9,54.9,109.9,55.1,109.9,55.3z"/>
		<path class="st0" d="M82.3,75.6c-2.1,0-4.1,0-6.2,0c-2.2,0-2.8-0.5-2.6-2.7c0.1-2.8-0.9-5.1-2.7-7.3c-1.2-1.5-2.4-3.1-3.2-4.8
			c-1.1-2.3-1.1-4.9-0.9-7.5c0-0.7,0.1-1.3,0.2-2c0.3-2.8,2.3-4.7,3.8-6.9c1.6-2.3,3.9-3.6,6.4-4.5c2.4-0.9,5-0.5,7.5-0.5
			c4.3,0,7.3,2.6,10,5.5c4.8,5.1,4.4,11.1,2.3,17.1c-0.5,1.4-1.7,2.6-2.8,3.6c-2,1.9-2.7,4.1-2.5,6.8c0,0.2,0,0.4,0,0.6
			c-0.2,2.2-0.7,2.6-2.9,2.6C86.5,75.6,84.4,75.6,82.3,75.6z M82.5,71.6c1.1,0,2.1,0,3.2,0c1,0,1.6-0.6,1.7-1.4c0.4-2.8,2-4.8,3.6-7
			c1.3-1.7,2.4-3.6,3-5.6c1.3-4.1-0.4-7.7-2.9-10.9c-2.6-3.2-6.2-3.9-10.1-3.7c-2.1,0.1-3.8,1.2-5.5,2.2c-2.9,1.7-4.6,4.3-5.2,7.4
			c-0.8,4.3,0.5,8.2,3.9,11.1c1.3,1.1,2,2.5,2.5,4c0.2,0.7,0.3,1.5,0.6,2.2c0.3,1,0.9,1.6,2.1,1.6C80.4,71.5,81.5,71.6,82.5,71.6z"
			/>
		<path class="st0" d="M83.3,85.2c-1.5-0.2-3.1-0.1-4.3-0.8c-1.3-0.7-2.4-2-3.2-3.3c-0.3-0.4,0.5-1.7,1-2.3c0.6-0.7,1.5-0.3,2.2,0.3
			c0.5,0.4,0.9,0.8,1.3,1.2c1.3,1,3.1,1,4.3-0.2c0.4-0.3,0.7-0.6,1.1-1c0.7-0.6,1.4-0.9,2.2-0.3c0.8,0.5,1.2,1.4,0.9,2.3
			c-0.1,0.6-0.5,1.2-0.9,1.6C86.6,83.7,85.5,85.4,83.3,85.2z"/>
		<path class="st0" d="M97.2,32.5c-0.2,0.8-0.2,1.3-0.4,1.7c-0.6,1.3-1.3,2.5-2,3.7c-0.5,0.9-2.1,1.4-2.9,0.8
			c-0.4-0.3-0.7-1.1-0.7-1.7c-0.1-0.6,0.1-1.3,0.4-1.8c0.6-1.2,1.3-2.3,2-3.4c0.4-0.7,1.7-1.1,2.7-0.6
			C96.7,31.5,96.9,32.1,97.2,32.5z"/>
		<path class="st0" d="M69.7,31.1c0.7-0.1,1.4,0.2,1.8,1.1c0.5,1,1.2,2,1.7,3.1c0.3,0.5,0.4,1.1,0.4,1.7c0.1,0.8-0.1,1.6-1.1,1.8
			c-1,0.2-1.8,0.1-2.4-0.9c-0.7-1.1-1.3-2.2-1.9-3.4c-0.3-0.5-0.4-1.1-0.4-1.7C67.8,31.4,68.1,31.1,69.7,31.1z"/>
		<path class="st0" d="M80.6,31.6c0-0.8,0-1.6,0-2.4c0-0.9,0.5-1.4,1.5-1.4c1.5,0,2.1,0.2,2.1,1.3c0.1,1.9,0,3.8,0,5.7
			c0,1.2-0.9,1.2-1.8,1.2c-0.8,0-1.6-0.1-1.7-1.2C80.6,33.7,80.6,32.6,80.6,31.6C80.5,31.6,80.5,31.6,80.6,31.6z"/>
		<path class="st0" d="M98.7,65.4c0.2-1.3,0.9-2.1,2.1-1.6c1.8,0.7,3.4,1.8,5.1,2.8c0.7,0.4,1,1.3,0.6,2c-0.3,0.5-1.1,0.9-1.8,1
			c-0.4,0.1-1-0.1-1.5-0.3c-1.3-0.8-2.5-1.5-3.7-2.4C99.1,66.5,98.9,65.9,98.7,65.4z"/>
		<path class="st0" d="M100.2,46.3C99.8,46,99,45.8,99,45.5c0-0.8,0-1.9,0.5-2.3c1.2-1.1,2.7-1.9,4.2-2.7c0.9-0.5,2.4-0.1,2.7,0.5
			c0.5,0.8,0.1,2.1-0.9,2.7c-1.1,0.7-2.1,1.3-3.2,1.9C101.7,45.9,101,46,100.2,46.3z"/>
		<path class="st0" d="M59.9,56.6c-1.2,0.1-2.1,0.1-3.1,0.2c-1.2,0-1.5-0.3-1.6-1.5C55,53.7,55.3,53,56.5,53c1.9-0.1,3.8,0,5.8,0.2
			c1.2,0.1,1,1.2,1,2c0.1,0.9-0.4,1.4-1.2,1.4C61.3,56.7,60.5,56.6,59.9,56.6z"/>
		<path class="st0" d="M59.9,40.6c2.3,0.4,4.1,1.3,5.6,2.8c0.4,0.4,0.4,1.6,0.1,2.2c-0.3,0.5-1.5,0.9-1.9,0.7
			c-1.6-0.8-3.2-1.8-4.5-2.9c-0.4-0.3-0.3-1.4-0.2-2.1C58.9,41,59.6,40.8,59.9,40.6z"/>
		<path class="st0" d="M66.3,65.4c-0.6,0.7-0.9,1.4-1.4,1.7c-1.2,0.8-2.5,1.4-3.8,2c-0.7,0.3-1.7,0.7-2.2-0.3
			c-0.6-1.1-0.2-2.3,0.8-2.9c1.1-0.7,2.2-1.5,3.4-2c0.6-0.3,1.4-0.2,2,0C65.6,64.1,65.8,64.8,66.3,65.4z"/>
		<path class="st0" d="M24.2,66c-5.3,0.5-8.6-4.4-8.5-8.9c0.1-5.1,3.7-8.9,8.8-8.9c3.6,0,8.7,3.8,8.6,9.3C33,61.8,29.2,66.7,24.2,66
			z M29.6,57.3c0.3-2.8-3.2-5.1-5.6-5c-2.2,0-4.4,2.6-4.4,5.1c0,2.5,2.4,5,4.8,5C26.7,62.3,29.6,59.5,29.6,57.3z"/>
	</g>
</g>
</svg>
