<?xml version="1.0" encoding="utf-8"?>
<!-- Generator: Adobe Illustrator 24.1.2, SVG Export Plug-In . SVG Version: 6.00 Build 0)  -->
<svg version="1.1" id="圖層_1" xmlns="http://www.w3.org/2000/svg" xmlns:xlink="http://www.w3.org/1999/xlink" x="0px" y="0px"
	 viewBox="0 0 110 110" style="enable-background:new 0 0 110 110;" xml:space="preserve">
<style type="text/css">
	.st0{fill:none;stroke:#BA2026;stroke-width:3.5;stroke-miterlimit:10;}
</style>
<g>
	<g>
		<g>
			<path class="st0" d="M46.8,53.4c0,1.8,1.5,3.3,3.3,3.3H68c1.6,0,3.2-1.1,3.4-2.7c0.3-2.1-1.2-3.8-3.2-3.8h-0.8h3.9
				c1.6,0,3.2-1.1,3.4-2.7c0.3-2.1-1.2-3.8-3.2-3.8H69h3.9c1.6,0,3.2-1.1,3.4-2.7c0.3-2.1-1.2-3.8-3.2-3.8h-3.3h3.3
				c2,0,3.6-1.8,3.2-3.8c-0.3-1.6-1.8-2.7-3.4-2.7H60.8c-0.5,0-0.8-0.4-0.8-0.8V18.8c0-2.7-2.2-4.9-4.9-4.9h-1.6v6.2
				c0,1.8-0.5,3.6-1.5,5.2l-5.1,8.3V53.4z"/>
			<path class="st0" d="M45.1,56.6h-6.5c-0.9,0-1.7-0.8-1.7-1.7V32c0-0.9,0.8-1.7,1.7-1.7h6.5c0.9,0,1.7,0.8,1.7,1.7v22.9
				C46.8,55.9,46,56.6,45.1,56.6z"/>
		</g>
		<path class="st0" d="M53.7,92.3l-6.2,3.4c-1.7,1-3.8-0.5-3.5-2.5l1.2-7.7c0.1-0.8-0.1-1.7-0.7-2.3l-5.3-5.5
			c-1.4-1.4-0.6-3.7,1.3-4l7.1-1.1c0.9-0.1,1.6-0.7,2-1.5l3.1-6.7c0.9-1.8,3.4-1.8,4.3,0l3.1,6.7c0.4,0.8,1.1,1.4,2,1.5l7.2,1.1
			c1.9,0.3,2.7,2.6,1.3,4l-5.3,5.5c-0.6,0.6-0.8,1.4-0.7,2.3l1.2,7.7c0.3,2-1.8,3.4-3.5,2.5l-6.2-3.4C55.5,91.9,54.5,91.9,53.7,92.3
			z"/>
		<path class="st0" d="M83.7,77l-4.3,2.4c-1.2,0.7-2.7-0.4-2.4-1.7l0.9-5.4c0.1-0.6-0.1-1.2-0.5-1.6l-3.7-3.8
			c-0.9-1-0.4-2.6,0.9-2.8l5-0.8c0.6-0.1,1.1-0.5,1.4-1l2.2-4.7c0.6-1.3,2.4-1.3,3,0l2.2,4.7c0.3,0.6,0.8,0.9,1.4,1l5,0.8
			c1.3,0.2,1.9,1.8,0.9,2.8l-3.7,3.9c-0.4,0.4-0.6,1-0.5,1.6l0.9,5.4c0.2,1.4-1.2,2.4-2.4,1.7L85.5,77C84.9,76.7,84.2,76.7,83.7,77z
			"/>
		<path class="st0" d="M24.5,77l-4.3,2.4c-1.2,0.7-2.7-0.4-2.4-1.7l0.9-5.4c0.1-0.6-0.1-1.2-0.5-1.6l-3.7-3.8
			c-0.9-1-0.4-2.6,0.9-2.8l5-0.8c0.6-0.1,1.1-0.5,1.4-1l2.2-4.7c0.6-1.3,2.4-1.3,3,0l2.2,4.7c0.3,0.6,0.8,0.9,1.4,1l5,0.8
			c1.3,0.2,1.9,1.8,0.9,2.8l-3.7,3.9c-0.4,0.4-0.6,1-0.5,1.6l0.9,5.4c0.2,1.4-1.2,2.4-2.4,1.7L26.3,77C25.8,76.7,25.1,76.7,24.5,77z
			"/>
	</g>
</g>
</svg>
